<?xml version="1.0" encoding="UTF-8"?>
<!-- Uploaded to: SVG Repo, www.svgrepo.com, Generator: SVG Repo Mixer Tools -->
<svg width="800" height="800" viewBox="0 0 495 495" xmlns="http://www.w3.org/2000/svg">
	<path fill="#00479B" d="M247.5 405c-27.57 0-50-22.43-50-50s22.43-50 50-50V190c-27.57 0-50-22.43-50-50s22.43-50 50-50V0C110.81 0 0 110.81 0 247.5S110.81 495 247.5 495V405zm-107.5-107.5c-27.57 0-50-22.43-50-50s22.43-50 50-50 50 22.43 50 50-22.43 50-50 50z"/>
	<path fill="#003068" d="M495 247.5C495 110.81 384.19 0 247.5 0v90c27.57 0 50 22.43 50 50s-22.43 50-50 50v115c27.57 0 50 22.43 50 50s-22.43 50-50 50v90c49.78 0 96.12-14.71 134.93-40C450.2 410.85 495 334.41 495 247.5zM355 197.5c27.57 0 50 22.43 50 50s-22.43 50-50 50-50-22.43-50-50 22.43-50 50-50z"/>
	<path fill="#2488FF" d="M247.5 495H495v-40H382.43C343.62 480.29 297.28 495 247.5 495z"/>
	<path fill="#46F8FF" d="M197.5 140c0 27.57 22.43 50 50 50s50-22.43 50-50-22.43-50-50-50-50 22.43-50 50zm-57.5 57.5c-27.57 0-50 22.43-50 50s22.43 50 50 50 50-22.43 50-50-22.43-50-50-50zm57.5 157.5c0 27.57 22.43 50 50 50s50-22.43 50-50-22.43-50-50-50-50 22.43-50 50zm157.5-57.5c27.57 0 50-22.43 50-50s-22.43-50-50-50-50 22.43-50 50 22.43 50 50 50z"/>
</svg>